<?xml version="1.0" encoding="UTF-8" standalone="no"?>
<svg
   width="100px"
   height="100px"
   viewBox="0 0 100 100"
   version="1.1"
   id="svg18"
   sodipodi:docname="icon.svg"
   inkscape:version="1.2.2 (732a01da63, 2022-12-09, custom)"
   xmlns:inkscape="http://www.inkscape.org/namespaces/inkscape"
   xmlns:sodipodi="http://sodipodi.sourceforge.net/DTD/sodipodi-0.dtd"
   xmlns:xlink="http://www.w3.org/1999/xlink"
   xmlns="http://www.w3.org/2000/svg"
   xmlns:svg="http://www.w3.org/2000/svg"
   xmlns:rdf="http://www.w3.org/1999/02/22-rdf-syntax-ns#"
   xmlns:cc="http://creativecommons.org/ns#"
   xmlns:dc="http://purl.org/dc/elements/1.1/">
  <metadata
     id="metadata22">
    <rdf:RDF>
      <cc:Work
         rdf:about="">
        <dc:format>image/svg+xml</dc:format>
        <dc:type
           rdf:resource="http://purl.org/dc/dcmitype/StillImage" />
        <dc:title>eclispe-che</dc:title>
      </cc:Work>
    </rdf:RDF>
  </metadata>
  <sodipodi:namedview
     pagecolor="#ffffff"
     bordercolor="#666666"
     borderopacity="1"
     objecttolerance="10"
     gridtolerance="10"
     guidetolerance="10"
     inkscape:pageopacity="0"
     inkscape:pageshadow="2"
     inkscape:window-width="1206"
     inkscape:window-height="736"
     id="namedview20"
     showgrid="false"
     inkscape:pagecheckerboard="true"
     inkscape:zoom="4.72"
     inkscape:cx="45.338983"
     inkscape:cy="57.521186"
     inkscape:window-x="0"
     inkscape:window-y="0"
     inkscape:window-maximized="1"
     inkscape:current-layer="layer1"
     inkscape:showpageshadow="2"
     inkscape:deskcolor="#d1d1d1" />
  <!-- Generator: Sketch 45.2 (43514) - http://www.bohemiancoding.com/sketch -->
  <title
     id="title2">eclispe-che</title>
  <desc
     id="desc4">Created with Sketch.</desc>
  <defs
     id="defs7">
    <path
       d="M50.0004412,4.04252804e-14 C22.3871247,4.04252804e-14 0,22.3848726 0,49.9995588 C0,77.6133626 22.3871247,100 50.0004412,100 C77.6137577,100 100,77.6133626 100,49.9995588 C100,22.3848726 77.6128753,3.55271368e-14 50.0004412,4.04252804e-14 Z"
       id="path-1" />
    <clipPath
       clipPathUnits="userSpaceOnUse"
       id="clipPath414">
      <rect
         style="opacity:0.5;fill:#000000;stroke-width:10.613"
         id="rect416"
         width="521.27826"
         height="440.85867"
         x="674.51324"
         y="368.65756" />
    </clipPath>
  </defs>
  <g
     inkscape:groupmode="layer"
     id="layer1"
     inkscape:label="BACKGROUND">
    <g
       style="fill:#ffffff;fill-opacity:1;fill-rule:evenodd;stroke:none;stroke-width:1;stroke-opacity:1"
       id="Page-1">
      <g
         id="eclispe-che"
         style="fill:#ffffff;fill-opacity:1;stroke:none;stroke-opacity:1">
        <g
           id="path3023-path"
           style="fill:#ffffff;fill-opacity:1;stroke:none;stroke-opacity:1">
          <use
             xlink:href="#path-1"
             id="use9"
             style="fill:#ffffff;fill-opacity:1;fill-rule:evenodd;stroke:none;stroke-opacity:1"
             x="0"
             y="0"
             width="100%"
             height="100%" />
          <path
             d="M 50.000441,0.5 C 22.662621,0.5 0.5,22.661661 0.5,49.999559 0.5,77.337051 22.663098,99.5 50.000441,99.5 77.337613,99.5 99.5,77.337222 99.5,49.999559 99.5,22.661796 77.337514,0.5 50.000441,0.5 Z"
             id="path11"
             style="fill:#ffffff;fill-opacity:1;stroke:none;stroke-width:1;stroke-opacity:1"
             inkscape:connector-curvature="0" />
        </g>
      </g>
    </g>
    <g
       id="g228"
       transform="matrix(0.21943857,0,0,0.21943857,-153.8929,-79.487101)"
       clip-path="url(#clipPath414)">
      <g
         id="g224">
        <polygon
           class="st0"
           points="466.6,913.6 524.4,913.6 524.4,895.8 389.9,895.8 389.9,913.6 447.5,913.6 447.5,1064.2 466.6,1064.2 "
           id="polygon208"
           style="fill:#141414" />
        <path
           class="st0"
           d="m 791.7,942.6 c -17.7,0 -30.6,7.2 -38.6,21.3 -6.2,-14.2 -17.9,-21.3 -34.7,-21.3 -13.6,0 -24.4,4.8 -31.5,14.1 v -12.1 h -18 l 0.2,119.7 h 18.5 v -57.6 c 0,-31.9 9.3,-47.5 28.4,-47.5 16.9,0 25.5,12.1 25.5,36 v 69.1 H 760 v -57.6 c 0,-31.9 9.6,-47.5 29.3,-47.5 24.8,0 24.8,24.6 24.8,35.1 v 70 h 18.5 v -74.5 c 0,-30.9 -14.1,-47.2 -40.9,-47.2 z"
           id="path210"
           style="fill:#141414" />
        <path
           class="st0"
           d="m 578.6,942.6 c -36.8,0 -53.3,31.3 -53.3,62.4 0,37.2 21.7,61.2 55.2,61.2 19.3,0 32.7,-5.8 46.3,-20.1 l 0.7,-0.8 -13,-11.3 -0.7,0.7 c -9.7,10.3 -19.3,14.5 -33.2,14.5 -22.4,0 -36.1,-14.7 -36.9,-39.3 h 86 l 0.1,-0.8 c 0.4,-2.7 0.7,-6.7 0.7,-10.4 0,-14.7 -4.3,-28.2 -12.2,-38.1 -9.1,-11.8 -22.9,-18 -39.7,-18 z m 0,15.8 c 19.8,0 32.8,12.5 34.1,32.7 0,1.2 0.1,2.2 0.1,2.8 h -69 c 1.9,-21.2 15.8,-35.5 34.8,-35.5 z"
           id="path212"
           style="fill:#141414" />
        <path
           class="st0"
           d="m 1425,1047.9 v -152 h -17.4 v 153.4 c 0,8.7 7.2,15.7 16,15.7 h 27.6 v -17 H 1425 Z"
           id="path214"
           style="fill:#141414" />
        <path
           class="st0"
           d="m 1314,942.6 c -20.4,0 -35.9,7.8 -48.8,24.5 l -0.6,0.8 13.5,11.3 0.6,-0.9 c 9.5,-13.1 20.6,-19.2 35,-19.2 19.3,0 29.6,10.6 29.6,30.8 v 4.5 h -23.1 c -22.9,0 -36,2.1 -45.2,7.3 -9.2,5.7 -14.1,15.2 -14.1,27.4 0,23.2 15.6,37.1 41.6,37.1 17.9,0 31.8,-6.1 41.4,-18.3 l 0.9,16.3 h 17 v -74.3 c 0,-14.7 -4.3,-26.7 -12.6,-34.9 -8.2,-8.1 -20.4,-12.4 -35.2,-12.4 z m 29.3,67.2 v 0.7 c 0,24.7 -13.8,40.1 -36,40.1 -17.2,0 -27.9,-7.9 -27.9,-20.5 0,-6.5 2,-11.4 6.1,-14.5 5.4,-4.3 14.6,-5.8 36.2,-5.8 z"
           id="path216"
           style="fill:#141414" />
        <path
           class="st0"
           d="m 934.5,942.4 c -15.7,0 -28.8,5.6 -37.9,16.1 v -14 H 878.1 V 1113 h 18.5 v -62.7 c 9.2,10.4 22.2,15.9 37.9,15.9 32.9,0 53.3,-23.7 53.3,-61.9 0,-18.4 -4.9,-34 -14.1,-44.9 -9.4,-11.1 -22.9,-17 -39.2,-17 z m 34.9,61.9 c 0,13.3 -3.3,24.6 -9.5,32.6 -6.5,8.3 -16.1,12.7 -27.7,12.7 -22.8,0 -37,-17.4 -37,-45.3 0,-27.9 14.2,-45.3 37,-45.3 22.9,-0.1 37.2,17.3 37.2,45.3 z"
           id="path218"
           style="fill:#141414" />
        <path
           class="st0"
           d="m 1074.5,942.6 c -16.4,0 -31.2,6.2 -41.5,17.6 -10.2,11.2 -15.8,26.8 -15.8,44.1 0,17.3 5.6,33 15.8,44.2 10.4,11.4 25.1,17.7 41.5,17.7 33.4,0 57.6,-26 57.6,-61.9 0,-17.2 -5.7,-32.9 -16,-44.1 -10.5,-11.4 -25.3,-17.6 -41.6,-17.6 z m 39.1,61.7 c 0,12.8 -3.7,24.3 -10.3,32.4 -7,8.5 -17,13 -28.8,13 -23.6,0 -38.9,-17.8 -38.9,-45.3 0,-27.4 15.3,-45.1 38.9,-45.1 23.7,-0.1 39.1,17.6 39.1,45 z"
           id="path220"
           style="fill:#141414" />
        <path
           class="st0"
           d="m 1223,942.6 c -10.5,0 -24.6,3 -33.9,17 v -15.1 h -18.5 v 119.7 h 18.5 v -66.7 c 0,-23.5 11.7,-38.2 30.5,-38.2 4.8,0 9.6,1.1 15.1,3.5 l 0.8,0.3 9.1,-15 -0.9,-0.5 c -6.1,-3.3 -12.9,-5 -20.7,-5 z"
           id="path222"
           style="fill:#141414" />
      </g>
      <path
         class="st0"
         d="m 999.1,518.2 c -9.2,-68.8 -32.4,-126.3 -68.2,-126.3 -35.7,0 -59,57.5 -68.2,126.3 -68.8,9.2 -126.3,32.4 -126.3,68.2 0,35.7 57.5,59 126.3,68.2 9.2,68.8 32.4,126.3 68.2,126.3 35.7,0 59,-57.5 68.2,-126.3 68.8,-9.2 126.3,-32.4 126.3,-68.2 0,-35.8 -57.5,-59.1 -126.3,-68.2 z M 860.5,634.4 c -65.9,-9.5 -104.4,-31.3 -104.4,-48.1 0,-16.8 38.4,-38.6 104.4,-48.1 -1.5,15.9 -2.2,32.1 -2.2,48.1 0,16 0.7,32.3 2.2,48.1 z m 70.4,-222.9 c 16.8,0 38.6,38.4 48.1,104.4 -15.9,-1.5 -32.1,-2.2 -48.1,-2.2 -16,0 -32.2,0.8 -48.1,2.2 9.5,-65.9 31.3,-104.4 48.1,-104.4 z m 70.4,222.9 c -3.2,0.5 -16.6,2 -19.9,2.4 -0.3,3.4 -1.9,16.7 -2.4,19.9 -9.5,65.9 -31.3,104.4 -48.1,104.4 -16.8,0 -38.6,-38.4 -48.1,-104.4 -0.5,-3.2 -2,-16.6 -2.4,-19.9 -1.5,-15.6 -2.5,-32.4 -2.5,-50.5 0,-18.1 0.9,-34.8 2.5,-50.5 15.6,-1.5 32.4,-2.5 50.5,-2.5 18.1,0 34.8,0.9 50.5,2.5 3.4,0.3 16.7,1.9 19.9,2.4 65.9,9.5 104.4,31.3 104.4,48.1 0,16.8 -38.5,38.6 -104.4,48.1 z"
         id="path226"
         style="fill:#141414" />
    </g>
  </g>
  <g
     inkscape:groupmode="layer"
     id="layer2"
     inkscape:label="PLACE LOGO HERE" />
</svg>
